<?xml version="1.0" encoding="UTF-8"?>
<svg id="uuid-67cd3d44-1a90-4d23-8aad-03732482e2f1" data-name="Layer 2" xmlns="http://www.w3.org/2000/svg" xmlns:xlink="http://www.w3.org/1999/xlink" viewBox="0 0 812.31 520.41">
  <defs>
    <style>
      .uuid-6d1340f3-75f9-4a24-b936-ead75edbeb12 {
        fill: #f15a24;
      }

      .uuid-793ba425-b940-4e57-9173-bd933bd7a15f {
        fill: url(#uuid-98327911-a1e4-48f0-b170-cac9e1808cff);
      }
    </style>
    <linearGradient id="uuid-98327911-a1e4-48f0-b170-cac9e1808cff" x1="118.02" y1="92.35" x2="832.59" y2="367.25" gradientUnits="userSpaceOnUse">
      <stop offset="0" stop-color="#fbb03b"/>
      <stop offset=".19" stop-color="#f7931e"/>
      <stop offset=".38" stop-color="#f37421"/>
      <stop offset=".54" stop-color="#f16123"/>
      <stop offset=".66" stop-color="#f15a24"/>
      <stop offset=".99" stop-color="#ed1f76"/>
      <stop offset="1" stop-color="#ed1e79"/>
    </linearGradient>
  </defs>
  <g id="uuid-9caaf016-86d2-43e4-a990-398c6409c71e" data-name="Meetro">
    <g>
      <path class="uuid-793ba425-b940-4e57-9173-bd933bd7a15f" d="M752.9,321.46l15.8,52.74,43.6,146.22-222.77-.09c-7.57,0-14.04-7.44-15.84-14.07l-59.62-219.85c-2.1-7.75-10.57-11.42-16.46-11.9-8.74-.7-14.57,3.39-19.21,10.42l-12.7,19.28-105.67,159.03c-9.43,14.2-26.45,9.29-30.29,3.95l-127.77-177.73-12.48-17.49-13.5-18.65-26.88-36.35-6.8-8.93c-2.83-3.72-5.73-7.07-7.97-11.8L225.29,15.03c2.19-4.36,3.12-7.43,6.84-10.5,8.59-7.1,21.42-6.15,29.08,4.97l41.1,59.68,37.19,53.94,73.45,106.31,6.12,9.09,6.89,10.01,4.87,7.14c3.63,5.31,8.46,9.54,14.18,10.21,6.07.71,14-.02,17.75-5.7l78.28-118.3,19.57-29.56,39.73-60.34,22.69-34.29c2.12-3.2,4.04-6.74,6.49-9.56,4.68-5.37,11.38-8.37,18.58-6.7,5.29,1.23,12.27,5.13,14.31,12.11l63.41,216.81,7.37,25.27,17.42,58.39,2.28,7.46Z"/>
      <path class="uuid-6d1340f3-75f9-4a24-b936-ead75edbeb12" d="M106.47,511.47c-7.28,6.96-17.27,6.39-23.94-.75l-16.85-18.04-15.57-16.28-13.33-14.08c-4.57-4.83-9.07-9.22-13.51-14.34C5.45,427.41-2.66,399.79.77,372.17c3.94-31.7,23.87-59.97,52.33-74.58,10.47-5.37,21.36-9.21,32.93-9.97,8.44-.55,17.16-.77,25.34.22,25.62,3.1,47.08,16.52,63.12,36.1,31,37.85,27.77,95.44-7.81,130.15l-7.19,7.02-13.93,13.1-19.44,18.47-19.64,18.8Z"/>
    </g>
  </g>
</svg>